<svg xmlns="http://www.w3.org/2000/svg" width="16" height="16" viewBox="0 0 16 16">
  <defs>
    <mask id="mask" x="0" y="0" width="600" height="250" >
      <rect width="100%" height="100%" fill="white"/>
      <circle cx="80%" cy="80%" r="20%" fill="black"/>
    </mask>
  </defs>
  <g fill="none" fill-rule="evenodd">
    <path fill="#62B543" mask="url(#mask)" fill-opacity=".6" d="M15,8 C15,11.866 11.866,15 8,15 C4.134,15 1,11.866 1,8 C1,4.134 4.134,1 8,1 C11.866,1 15,4.134 15,8"/>
    <path fill="#231F20" fill-opacity=".7" d="M3.6281,2.7611 C3.4731,2.8511 3.3451,2.9741 3.2461,3.1241 C3.1511,3.2721 3.0811,3.4411 3.0391,3.6261 C2.9971,3.8091 2.9761,3.9961 2.9761,4.1841 C2.9761,4.5861 3.0491,4.8721 3.1971,5.0581 C3.3491,5.2481 3.5541,5.3451 3.8051,5.3451 C3.9701,5.3451 4.1151,5.3071 4.2371,5.2311 C4.3571,5.1581 4.4571,5.0531 4.5331,4.9201 C4.6061,4.7931 4.6631,4.6401 4.7011,4.4641 C4.7391,4.2941 4.7641,4.1011 4.7731,3.8931 L4.8421,2.6991 L4.8001,2.6891 C4.6851,2.6621 4.5981,2.6481 4.5001,2.6371 C4.4021,2.6271 4.3041,2.6221 4.2021,2.6221 C3.9781,2.6221 3.7861,2.6681 3.6281,2.7611 Z M0.0021,4.0006 C0.0021,0.0011 3.66741943,0.0011 4.3161,0.0011 C4.65105644,0.0011 8.0001,0.0864290039 8.0001,3.5571 C8.0001,6.0091 6.4751,6 6.1701,6 C5.67331784,5.97 5.31431784,5.7737 5.0931,5.4111 C4.68260397,5.8037 4.28127064,6 3.8891,6 C3.0796519,6 2.0001,5.9211 2.0001,4.0001 C2.0001,2.32043457 3.45593262,2.0001 4.0001,2.0001 C4.1531,2.0001 5.7451,2.0551 5.8241,2.0791 L5.7441,4.1881 C5.6361,4.89276667 5.7991,5.2451 6.2331,5.2451 C6.95605469,5.2451 7.0601,3.7831 7.0601,3.5471 C7.0601,0.907409668 4.7081,0.7451 4.3161,0.7451 C3.7711,0.7451 0.94354248,0.850891113 0.94354248,4.0006 C0.94354248,4.58402311 0.94354248,7.2461 3.8891,7.2461 C4.0901,7.2461 5.7441,7.04302979 6.1621,6.8281 L6.1621,7.5781 C5.8551,7.7031 5.0931,8.0001 3.8981,8.0001 C3.15576172,8.0001 0.0021,8.0001 0.0021,4.0006 Z" transform="translate(4 4)"/>
    <path transform="scale(0.65 0.65) translate(7.5 7.5)" fill="#40B6E0" d="M14.9038963,12.5790317 L15.8135595,13.2316899 C15.6384896,13.7731744 15.3510977,14.2641457 14.9788518,14.6771359 L13.9588158,14.2169755 C13.668497,14.4727984 13.3275303,14.6724899 12.9528891,14.7990766 L12.8417488,15.9127236 C12.5724461,15.9699115 12.2931267,16 12.0067798,16 C11.7204328,16 11.4411134,15.9699115 11.1718107,15.9127236 L11.0606704,14.7990765 C10.6860293,14.6724898 10.3450626,14.4727983 10.0547438,14.2169754 L9.03470769,14.6771359 C8.66246178,14.2641457 8.37506991,13.7731744 8.2,13.2316899 L9.10966347,12.5790315 C9.07244924,12.3917905 9.05293363,12.1981744 9.05293363,12.0000001 C9.05293363,11.8018258 9.07244926,11.6082096 9.10966352,11.4209686 L8.2,10.7683101 C8.37506991,10.2268256 8.66246178,9.73585432 9.03470769,9.32286405 L10.0547441,9.78302467 C10.3450628,9.52720191 10.6860293,9.32751047 11.0606704,9.20092378 L11.1718107,8.08727644 C11.4411134,8.03008853 11.7204328,8 12.0067798,8 C12.2931267,8 12.5724461,8.03008853 12.8417488,8.08727644 L12.9528891,9.20092368 C13.3275302,9.32751034 13.6684969,9.5272018 13.9588156,9.78302459 L14.9788518,9.32286405 C15.3510977,9.73585432 15.6384896,10.2268256 15.8135595,10.7683101 L14.9038962,11.4209684 C14.9411105,11.6082095 14.9606262,11.8018258 14.9606262,12.0000001 C14.9606262,12.1981744 14.9411105,12.3917906 14.9038963,12.5790317 Z M12.0067796,13.4156281 C12.7884749,13.4156281 13.4221642,12.7818843 13.4221642,12.0001217 C13.4221642,11.2183591 12.7884749,10.5846153 12.0067796,10.5846153 C11.2250843,10.5846153 10.591395,11.2183591 10.591395,12.0001217 C10.591395,12.7818843 11.2250843,13.4156281 12.0067796,13.4156281 Z"/>
  </g>
</svg>
